<svg xmlns="http://www.w3.org/2000/svg" viewBox="0 0 64 64">
  <path fill="#336791" d="M51.9 13.8c-1.7-5.3-5.8-8.3-10.3-8.4-3.2-.1-6.3.9-8.5 2.4-3.2-1.2-6.7-1.9-10.3-1.9-1.9 0-3.7.2-5.5.6-3.2.8-5.4 2.5-6.5 5.2-1.8 4.5-.3 9.2 4.1 12.6.7.6 1.5 1 2.3 1.4 0 .4 0 .7-.1 1.1-1.6 12.4 3.9 17 10.2 17.6 1 .1 2 .1 3 0 4.3-.4 9.6-2.3 14.7-7.3 3.6-3.5 6.4-8.1 7.9-13.2 1.5-5.1 1.2-9.5-1-12.1zm-2 11.2c-1.4 4.8-4 9.1-7.3 12.3-4.4 4.3-9 6-12.7 6.3-.8.1-1.6.1-2.4 0-4.7-.4-8.6-3.7-7.3-13.6 0-.6.1-1.1.2-1.7.3.1.7.1 1 .2 1.2.2 2.4.3 3.7.3 6.3 0 12.3-2.2 16.9-6.1 1.6-1.3 3.1-2.9 4.2-4.8.8 2.1.8 4.8-.3 7.1z"/>
  <path fill="#336791" d="M37.2 7.9c3.6.1 7 2.5 8.4 7.1s-.5 9.6-4.2 13.9c-5.5 6.4-13.6 8.7-21.3 6.6-1.9-.5-3.7-1.4-5.1-2.6-2.8-2.4-4-5.8-2.5-9.6.9-2.2 2.7-3.5 5.5-4.2 1.6-.4 3.3-.6 5-.6 3.3 0 6.6.7 9.6 1.9-.3.2-.6.5-.9.7-1.2.8-2.5 1.4-3.9 1.8-.7.2-1.3.3-2 .5l-.5.1c1.3.4 2.6.6 4 .5 3-.1 5.9-1.3 8.1-3.4 1.1-.9 2-2 2.8-3.1.6-.9 1.1-1.9 1.5-2.9.5-1.1.9-2.3 1.3-3.4.4-1.3.6-2.7.6-4 0-.2 0-.4-.1-.6-.3-.8-1.4-.9-1.8-.9-1 0-2 .3-2.9.7-1.1.6-2.1 1.4-2.9 2.3.2-.9.3-1.8.3-2.7-.3-.1-.6-.1-1-.1-1.1 0-2.1.4-2.9.9z"/>
  <circle cx="42.8" cy="9.7" r="1.7" fill="#336791"/>
</svg> 