<svg xmlns="http://www.w3.org/2000/svg" viewBox="0 0 64 64">
  <path fill="#336791" d="M40.9 6.5c-1.7-5.3-5.8-7.3-9.3-7.4-3.2-.1-5.3.9-7.5 2.4-3.2-1.2-6.7-1.2-10.3-1.2-1.9 0-3.7.2-5.5.6-3.2.8-5.4 2.5-6.5 5.2-1.8 4.5-.3 9.2 4.1 12.6.7.6 1.5 1 2.3 1.4 0 .4 0 .7-.1 1.1-1.6 12.4 3.9 17 10.2 17.6 1 .1 2 .1 3 0 4.3-.4 8.6-1.3 13.7-6.3 3.6-3.5 5.4-8.1 6.9-13.2s1.2-9.5-1-12.8z"/>
  <path fill="#fff" d="M16.4 30c0 1.7 1.3 3 3 3s3-1.3 3-3-1.3-3-3-3-3 1.3-3 3zm14.5-3c-1.7 0-3 1.3-3 3s1.3 3 3 3 3-1.3 3-3-1.3-3-3-3zm-7.3 10c-1.7 0-3 1.3-3 3s1.3 3 3 3 3-1.3 3-3-1.3-3-3-3z"/>
  <path fill="#fff" d="M33.6 8.5l-9.3 10L15 13.2 9.2 24.5l14.3 6.2 10.1-16 7.3-1.7z"/>
  <path fill="#336791" d="M44 30L30 44l10 10 14-14z"/>
  <path fill="#fff" d="M44 34l-10 10 6 6 10-10z"/>
  <circle cx="30" cy="54" r="4" fill="#336791"/>
  <circle cx="30" cy="54" r="2" fill="#fff"/>
</svg> 